<svg width="63" height="63" viewBox="0 0 63 63" fill="none" xmlns="http://www.w3.org/2000/svg">
<rect width="63" height="63" rx="22" fill="url(#paint0_radial_100_1676)" fill-opacity="0.12"/>
<g clip-path="url(#clip0_100_1676)">
<path d="M39.9583 18.4167H38.75V17.2083C38.75 16.8879 38.6227 16.5805 38.3961 16.3539C38.1695 16.1273 37.8621 16 37.5417 16C37.2212 16 36.9139 16.1273 36.6872 16.3539C36.4606 16.5805 36.3333 16.8879 36.3333 17.2083V18.4167H26.6667V17.2083C26.6667 16.8879 26.5394 16.5805 26.3128 16.3539C26.0861 16.1273 25.7788 16 25.4583 16C25.1379 16 24.8305 16.1273 24.6039 16.3539C24.3773 16.5805 24.25 16.8879 24.25 17.2083V18.4167H23.0417C21.4399 18.4186 19.9043 19.0557 18.7717 20.1883C17.6391 21.321 17.0019 22.8566 17 24.4583L17 38.9583C17.0019 40.5601 17.6391 42.0957 18.7717 43.2283C19.9043 44.3609 21.4399 44.9981 23.0417 45H39.9583C41.5601 44.9981 43.0957 44.3609 44.2283 43.2283C45.3609 42.0957 45.9981 40.5601 46 38.9583V24.4583C45.9981 22.8566 45.3609 21.321 44.2283 20.1883C43.0957 19.0557 41.5601 18.4186 39.9583 18.4167ZM19.4167 24.4583C19.4167 23.4969 19.7986 22.5749 20.4784 21.8951C21.1582 21.2153 22.0803 20.8333 23.0417 20.8333H39.9583C40.9197 20.8333 41.8418 21.2153 42.5216 21.8951C43.2014 22.5749 43.5833 23.4969 43.5833 24.4583V25.6667H19.4167V24.4583ZM39.9583 42.5833H23.0417C22.0803 42.5833 21.1582 42.2014 20.4784 41.5216C19.7986 40.8418 19.4167 39.9197 19.4167 38.9583V28.0833H43.5833V38.9583C43.5833 39.9197 43.2014 40.8418 42.5216 41.5216C41.8418 42.2014 40.9197 42.5833 39.9583 42.5833Z" fill="#8841EE"/>
<path d="M31.5 35.9375C32.501 35.9375 33.3125 35.126 33.3125 34.125C33.3125 33.124 32.501 32.3125 31.5 32.3125C30.499 32.3125 29.6875 33.124 29.6875 34.125C29.6875 35.126 30.499 35.9375 31.5 35.9375Z" fill="#8841EE"/>
<path d="M25.4581 35.9375C26.4591 35.9375 27.2706 35.126 27.2706 34.125C27.2706 33.124 26.4591 32.3125 25.4581 32.3125C24.4571 32.3125 23.6456 33.124 23.6456 34.125C23.6456 35.126 24.4571 35.9375 25.4581 35.9375Z" fill="#8841EE"/>
<path d="M37.5419 35.9375C38.5429 35.9375 39.3544 35.126 39.3544 34.125C39.3544 33.124 38.5429 32.3125 37.5419 32.3125C36.5409 32.3125 35.7294 33.124 35.7294 34.125C35.7294 35.126 36.5409 35.9375 37.5419 35.9375Z" fill="#8841EE"/>
</g>
<defs>
<radialGradient id="paint0_radial_100_1676" cx="0" cy="0" r="1" gradientUnits="userSpaceOnUse" gradientTransform="translate(31.0563 31.9437) rotate(44.1931) scale(44.5521)">
<stop stop-color="#7220EA"/>
<stop offset="0.0708332" stop-color="#8841EE"/>
<stop offset="1" stop-color="#D9C0FF"/>
</radialGradient>
<clipPath id="clip0_100_1676">
<rect width="29" height="29" fill="white" transform="translate(17 16)"/>
</clipPath>
</defs>
</svg>
