<svg width="124" height="115" viewBox="0 0 124 115" fill="none" xmlns="http://www.w3.org/2000/svg">
<g filter="url(#filter0_d_777_2200)">
<rect x="10" y="6" width="104" height="95" rx="8" fill="#A161FF" shape-rendering="crispEdges"/>
<path d="M33.1123 23.172C33.7513 22.533 34.0663 21.759 34.0663 20.85C34.0663 19.941 33.7513 19.167 33.1123 18.537C32.4823 17.898 31.7083 17.583 30.7993 17.583C29.8903 17.583 29.1163 17.898 28.4773 18.537C27.8473 19.167 27.5323 19.941 27.5323 20.85C27.5323 21.759 27.8473 22.533 28.4773 23.172C29.1163 23.802 29.8903 24.117 30.7993 24.117C31.7083 24.117 32.4823 23.802 33.1123 23.172ZM29.2063 22.47C28.7833 22.038 28.5673 21.498 28.5673 20.85C28.5673 20.202 28.7833 19.662 29.2063 19.239C29.6383 18.807 30.1693 18.591 30.7993 18.591C31.4293 18.591 31.9603 18.807 32.3833 19.239C32.8153 19.662 33.0313 20.202 33.0313 20.85C33.0313 21.498 32.8153 22.038 32.3833 22.47C31.9603 22.893 31.4293 23.109 30.7993 23.109C30.1693 23.109 29.6383 22.893 29.2063 22.47ZM37.4584 19.5H36.3424V18.24L35.3704 18.528V19.5H34.5424V20.436H35.3704V22.596C35.3704 23.775 35.9734 24.18 37.4584 24V23.127C36.7204 23.163 36.3424 23.172 36.3424 22.596V20.436H37.4584V19.5ZM40.7069 19.383C40.0679 19.383 39.6089 19.617 39.3119 20.076V17.7H38.3399V24H39.3119V21.588C39.3119 20.715 39.7709 20.292 40.4549 20.292C41.0759 20.292 41.4629 20.661 41.4629 21.336V24H42.4349V21.237C42.4349 20.085 41.7419 19.383 40.7069 19.383ZM47.8286 22.164C47.8556 21.993 47.8646 21.858 47.8646 21.759C47.8646 21.102 47.6486 20.535 47.2256 20.076C46.8026 19.617 46.2626 19.383 45.6056 19.383C44.9126 19.383 44.3366 19.608 43.8956 20.067C43.4546 20.517 43.2296 21.075 43.2296 21.75C43.2296 22.434 43.4546 23.001 43.9046 23.451C44.3546 23.892 44.9486 24.117 45.6776 24.117C46.5506 24.117 47.2076 23.793 47.6486 23.136L46.8476 22.668C46.5866 23.037 46.1996 23.226 45.6866 23.226C44.9396 23.226 44.3906 22.848 44.2466 22.164H47.8286ZM44.2376 21.372C44.3726 20.688 44.8766 20.265 45.5966 20.265C46.2356 20.265 46.7486 20.643 46.8836 21.372H44.2376ZM49.6918 19.5H48.7198V24H49.6918V21.732C49.6918 21.273 49.8268 20.94 50.1058 20.742C50.3848 20.535 50.7088 20.445 51.0778 20.472V19.419C50.4028 19.419 49.9348 19.698 49.6918 20.256V19.5ZM54.109 17.7V24H56.584C57.448 24 58.168 23.694 58.735 23.091C59.311 22.479 59.599 21.732 59.599 20.85C59.599 19.959 59.311 19.212 58.735 18.609C58.168 18.006 57.448 17.7 56.584 17.7H54.109ZM55.144 23.01V18.69H56.584C57.178 18.69 57.664 18.897 58.033 19.302C58.411 19.707 58.6 20.22 58.6 20.85C58.6 21.471 58.411 21.993 58.033 22.398C57.664 22.803 57.178 23.01 56.584 23.01H55.144ZM62.6036 24.117C63.2696 24.117 63.8276 23.892 64.2866 23.433C64.7456 22.974 64.9796 22.416 64.9796 21.75C64.9796 21.084 64.7456 20.526 64.2866 20.067C63.8276 19.608 63.2696 19.383 62.6036 19.383C61.9466 19.383 61.3796 19.608 60.9206 20.067C60.4616 20.526 60.2276 21.084 60.2276 21.75C60.2276 22.416 60.4616 22.974 60.9206 23.433C61.3796 23.892 61.9466 24.117 62.6036 24.117ZM61.6046 22.767C61.3346 22.497 61.1996 22.155 61.1996 21.75C61.1996 21.345 61.3346 21.003 61.6046 20.733C61.8746 20.463 62.2076 20.328 62.6036 20.328C62.9996 20.328 63.3326 20.463 63.6026 20.733C63.8726 21.003 64.0076 21.345 64.0076 21.75C64.0076 22.155 63.8726 22.497 63.6026 22.767C63.3326 23.037 62.9996 23.172 62.6036 23.172C62.2076 23.172 61.8746 23.037 61.6046 22.767ZM67.9825 24.117C68.8555 24.117 69.6205 23.667 70.0075 22.947L69.1705 22.47C68.9545 22.893 68.5045 23.163 67.9735 23.163C67.5775 23.163 67.2445 23.028 66.9745 22.758C66.7135 22.488 66.5785 22.155 66.5785 21.75C66.5785 21.345 66.7135 21.012 66.9745 20.742C67.2445 20.472 67.5775 20.337 67.9735 20.337C68.5135 20.337 68.9455 20.598 69.1525 21.03L69.9895 20.544C69.6295 19.833 68.8555 19.383 67.9825 19.383C67.3075 19.383 66.7405 19.608 66.2815 20.067C65.8315 20.517 65.6065 21.075 65.6065 21.75C65.6065 22.416 65.8315 22.974 66.2815 23.433C66.7405 23.892 67.3075 24.117 67.9825 24.117ZM73.7694 21.912C73.7694 22.785 73.3104 23.208 72.6264 23.208C72.0054 23.208 71.6184 22.839 71.6184 22.164V19.5H70.6464V22.263C70.6464 23.415 71.3394 24.117 72.3744 24.117C73.0134 24.117 73.4724 23.883 73.7694 23.424V24H74.7414V19.5H73.7694V21.912ZM80.792 19.383C80.171 19.383 79.712 19.617 79.415 20.094C79.136 19.617 78.713 19.383 78.137 19.383C77.57 19.383 77.138 19.599 76.85 20.04V19.5H75.878V24H76.85V21.48C76.85 20.697 77.264 20.292 77.849 20.292C78.389 20.292 78.695 20.652 78.695 21.273V24H79.667V21.48C79.667 20.688 80.045 20.292 80.648 20.292C81.188 20.292 81.521 20.652 81.521 21.273V24H82.493V21.21C82.493 20.094 81.809 19.383 80.792 19.383ZM87.8803 22.164C87.9073 21.993 87.9163 21.858 87.9163 21.759C87.9163 21.102 87.7003 20.535 87.2773 20.076C86.8543 19.617 86.3143 19.383 85.6573 19.383C84.9643 19.383 84.3883 19.608 83.9473 20.067C83.5063 20.517 83.2813 21.075 83.2813 21.75C83.2813 22.434 83.5063 23.001 83.9563 23.451C84.4063 23.892 85.0003 24.117 85.7293 24.117C86.6023 24.117 87.2593 23.793 87.7003 23.136L86.8993 22.668C86.6383 23.037 86.2513 23.226 85.7383 23.226C84.9913 23.226 84.4423 22.848 84.2983 22.164H87.8803ZM84.2893 21.372C84.4243 20.688 84.9283 20.265 85.6483 20.265C86.2873 20.265 86.8003 20.643 86.9353 21.372H84.2893ZM91.1386 19.383C90.4996 19.383 90.0406 19.617 89.7436 20.076V19.5H88.7716V24H89.7436V21.588C89.7436 20.715 90.2026 20.292 90.8866 20.292C91.5076 20.292 91.8946 20.661 91.8946 21.336V24H92.8666V21.237C92.8666 20.085 92.1736 19.383 91.1386 19.383ZM96.4242 19.5H95.3082V18.24L94.3362 18.528V19.5H93.5082V20.436H94.3362V22.596C94.3362 23.775 94.9392 24.18 96.4242 24V23.127C95.6862 23.163 95.3082 23.172 95.3082 22.596V20.436H96.4242V19.5Z" fill="white"/>
<g clip-path="url(#clip0_777_2200)">
<path d="M74.9186 45.9965L69.2539 40.3318C68.2002 39.2724 66.9469 38.4325 65.5665 37.8607C64.186 37.2889 62.7059 36.9965 61.2118 37.0005H53.8749C51.7208 37.0031 49.6557 37.86 48.1325 39.3831C46.6093 40.9063 45.7525 42.9714 45.7499 45.1255V67.8755C45.7525 70.0296 46.6093 72.0947 48.1325 73.6179C49.6557 75.1411 51.7208 75.998 53.8749 76.0005H70.1249C72.279 75.998 74.3441 75.1411 75.8673 73.6179C77.3904 72.0947 78.2473 70.0296 78.2499 67.8755V54.0387C78.2539 52.5445 77.9615 51.0644 77.3897 49.684C76.8179 48.3035 75.978 47.0502 74.9186 45.9965ZM72.6209 48.2943C73.1166 48.8052 73.5433 49.3788 73.89 50.0005H66.8749C66.4439 50.0005 66.0306 49.8293 65.7258 49.5246C65.4211 49.2198 65.2499 48.8065 65.2499 48.3755V41.3604C65.8716 41.7072 66.4452 42.1338 66.9561 42.6295L72.6209 48.2943ZM74.9999 67.8755C74.9999 69.1685 74.4863 70.4084 73.572 71.3227C72.6578 72.2369 71.4178 72.7505 70.1249 72.7505H53.8749C52.5819 72.7505 51.342 72.2369 50.4277 71.3227C49.5135 70.4084 48.9999 69.1685 48.9999 67.8755V45.1255C48.9999 43.8326 49.5135 42.5926 50.4277 41.6784C51.342 40.7641 52.5819 40.2505 53.8749 40.2505H61.2118C61.4799 40.2505 61.7366 40.3025 61.9999 40.3269V48.3755C61.9999 49.6685 62.5135 50.9084 63.4277 51.8227C64.342 52.7369 65.5819 53.2505 66.8749 53.2505H74.9235C74.9479 53.5138 74.9999 53.7705 74.9999 54.0387V67.8755ZM69.6764 58.6309C69.9731 58.943 70.1338 59.3602 70.1231 59.7907C70.1124 60.2213 69.9313 60.63 69.6195 60.927L63.7874 66.4748C62.8706 67.3771 61.6344 67.8805 60.3481 67.8754C59.0617 67.8702 57.8296 67.3568 56.9201 66.4472L54.4176 64.2144C54.0957 63.9274 53.901 63.5242 53.8763 63.0936C53.8641 62.8804 53.8939 62.6669 53.9642 62.4652C54.0345 62.2635 54.1439 62.0777 54.286 61.9183C54.4281 61.7589 54.6003 61.629 54.7926 61.5361C54.9849 61.4432 55.1936 61.3891 55.4068 61.3769C55.8374 61.3522 56.2602 61.4996 56.5821 61.7867L59.1578 64.0844C59.3052 64.25 59.485 64.3836 59.686 64.4772C59.887 64.5707 60.1051 64.622 60.3267 64.6281C60.5483 64.6342 60.7689 64.5949 60.9747 64.5126C61.1806 64.4302 61.3674 64.3066 61.5238 64.1494L67.3738 58.574C67.5284 58.4261 67.7108 58.3102 67.9104 58.233C68.11 58.1558 68.3229 58.1188 68.5369 58.124C68.7508 58.1293 68.9616 58.1768 69.1572 58.2638C69.3527 58.3508 69.5292 58.4755 69.6764 58.6309Z" fill="white"/>
</g>
</g>
<defs>
<filter id="filter0_d_777_2200" x="0" y="0" width="124" height="115" filterUnits="userSpaceOnUse" color-interpolation-filters="sRGB">
<feFlood flood-opacity="0" result="BackgroundImageFix"/>
<feColorMatrix in="SourceAlpha" type="matrix" values="0 0 0 0 0 0 0 0 0 0 0 0 0 0 0 0 0 0 127 0" result="hardAlpha"/>
<feOffset dy="4"/>
<feGaussianBlur stdDeviation="5"/>
<feComposite in2="hardAlpha" operator="out"/>
<feColorMatrix type="matrix" values="0 0 0 0 0 0 0 0 0 0 0 0 0 0 0 0 0 0 0.25 0"/>
<feBlend mode="normal" in2="BackgroundImageFix" result="effect1_dropShadow_777_2200"/>
<feBlend mode="normal" in="SourceGraphic" in2="effect1_dropShadow_777_2200" result="shape"/>
</filter>
<clipPath id="clip0_777_2200">
<rect width="39" height="39" fill="white" transform="translate(42.5 37)"/>
</clipPath>
</defs>
</svg>
