<svg width="62" height="62" viewBox="0 0 62 62" fill="none" xmlns="http://www.w3.org/2000/svg">
<rect width="62" height="62" rx="22" fill="url(#paint0_radial_800_2223)" fill-opacity="0.12"/>
<g clip-path="url(#clip0_800_2223)">
<path d="M38 20H24C22.6744 20.0016 21.4036 20.5289 20.4662 21.4662C19.5289 22.4036 19.0016 23.6744 19 25V37C19.0016 38.3256 19.5289 39.5964 20.4662 40.5338C21.4036 41.4711 22.6744 41.9984 24 42H38C39.3256 41.9984 40.5964 41.4711 41.5338 40.5338C42.4711 39.5964 42.9984 38.3256 43 37V25C42.9984 23.6744 42.4711 22.4036 41.5338 21.4662C40.5964 20.5289 39.3256 20.0016 38 20V20ZM24 22H38C38.7956 22 39.5587 22.3161 40.1213 22.8787C40.6839 23.4413 41 24.2044 41 25V26H21V25C21 24.2044 21.3161 23.4413 21.8787 22.8787C22.4413 22.3161 23.2044 22 24 22V22ZM38 40H24C23.2044 40 22.4413 39.6839 21.8787 39.1213C21.3161 38.5587 21 37.7956 21 37V28H41V37C41 37.7956 40.6839 38.5587 40.1213 39.1213C39.5587 39.6839 38.7956 40 38 40ZM38 32C38 32.2652 37.8946 32.5196 37.7071 32.7071C37.5196 32.8946 37.2652 33 37 33H25C24.7348 33 24.4804 32.8946 24.2929 32.7071C24.1054 32.5196 24 32.2652 24 32C24 31.7348 24.1054 31.4804 24.2929 31.2929C24.4804 31.1054 24.7348 31 25 31H37C37.2652 31 37.5196 31.1054 37.7071 31.2929C37.8946 31.4804 38 31.7348 38 32ZM34 36C34 36.2652 33.8946 36.5196 33.7071 36.7071C33.5196 36.8946 33.2652 37 33 37H25C24.7348 37 24.4804 36.8946 24.2929 36.7071C24.1054 36.5196 24 36.2652 24 36C24 35.7348 24.1054 35.4804 24.2929 35.2929C24.4804 35.1054 24.7348 35 25 35H33C33.2652 35 33.5196 35.1054 33.7071 35.2929C33.8946 35.4804 34 35.7348 34 36ZM22 24C22 23.8022 22.0586 23.6089 22.1685 23.4444C22.2784 23.28 22.4346 23.1518 22.6173 23.0761C22.8 23.0004 23.0011 22.9806 23.1951 23.0192C23.3891 23.0578 23.5673 23.153 23.7071 23.2929C23.847 23.4327 23.9422 23.6109 23.9808 23.8049C24.0194 23.9989 23.9996 24.2 23.9239 24.3827C23.8482 24.5654 23.72 24.7216 23.5556 24.8315C23.3911 24.9414 23.1978 25 23 25C22.7348 25 22.4804 24.8946 22.2929 24.7071C22.1054 24.5196 22 24.2652 22 24ZM25 24C25 23.8022 25.0586 23.6089 25.1685 23.4444C25.2784 23.28 25.4346 23.1518 25.6173 23.0761C25.8 23.0004 26.0011 22.9806 26.1951 23.0192C26.3891 23.0578 26.5673 23.153 26.7071 23.2929C26.847 23.4327 26.9422 23.6109 26.9808 23.8049C27.0194 23.9989 26.9996 24.2 26.9239 24.3827C26.8482 24.5654 26.72 24.7216 26.5556 24.8315C26.3911 24.9414 26.1978 25 26 25C25.7348 25 25.4804 24.8946 25.2929 24.7071C25.1054 24.5196 25 24.2652 25 24ZM28 24C28 23.8022 28.0586 23.6089 28.1685 23.4444C28.2784 23.28 28.4346 23.1518 28.6173 23.0761C28.8 23.0004 29.0011 22.9806 29.1951 23.0192C29.3891 23.0578 29.5673 23.153 29.7071 23.2929C29.847 23.4327 29.9422 23.6109 29.9808 23.8049C30.0194 23.9989 29.9996 24.2 29.9239 24.3827C29.8482 24.5654 29.72 24.7216 29.5556 24.8315C29.3911 24.9414 29.1978 25 29 25C28.7348 25 28.4804 24.8946 28.2929 24.7071C28.1054 24.5196 28 24.2652 28 24Z" fill="#8841EE"/>
</g>
<defs>
<radialGradient id="paint0_radial_800_2223" cx="0" cy="0" r="1" gradientUnits="userSpaceOnUse" gradientTransform="translate(30.5634 31.4366) rotate(44.1931) scale(43.845)">
<stop stop-color="#7220EA"/>
<stop offset="0.0708332" stop-color="#8841EE"/>
<stop offset="1" stop-color="#D9C0FF"/>
</radialGradient>
<clipPath id="clip0_800_2223">
<rect width="24" height="24" fill="white" transform="translate(19 19)"/>
</clipPath>
</defs>
</svg>
