<svg width="13" height="14" viewBox="0 0 13 14" fill="none" xmlns="http://www.w3.org/2000/svg">
<path d="M0.157643 5.13218C0.0409263 4.91569 -0.013147 4.67095 0.00149199 4.42544C0.016131 4.17993 0.0989029 3.94335 0.240518 3.74226C0.47195 3.4027 0.781884 3.12398 1.14402 2.92976L5.20706 0.815097C5.60641 0.607439 6.0499 0.499023 6.50002 0.499023C6.95013 0.499023 7.39363 0.607439 7.79298 0.815097L11.8555 2.93139C12.2176 3.12561 12.5275 3.40433 12.759 3.74389C12.9006 3.94498 12.9834 4.18155 12.998 4.42707C13.0126 4.67258 12.9586 4.91732 12.8419 5.13381C12.7162 5.3715 12.5277 5.57017 12.297 5.70818C12.0662 5.84619 11.8021 5.91825 11.5332 5.91651H1.46685C1.19773 5.91819 0.933313 5.84594 0.702446 5.70763C0.471578 5.56932 0.283125 5.37027 0.157643 5.13218ZM12.4584 12.4165C12.4584 12.1292 12.3442 11.8536 12.1411 11.6505C11.9379 11.4473 11.6623 11.3332 11.375 11.3332V6.99985H10.2917V11.3332H8.66669V6.99985H7.58335V11.3332H5.41669V6.99985H4.33335V11.3332H2.70835V6.99985H1.62502V11.3332C1.3377 11.3332 1.06215 11.4473 0.858986 11.6505C0.655822 11.8536 0.541685 12.1292 0.541685 12.4165C0.398026 12.4165 0.260251 12.4736 0.158669 12.5752C0.0570867 12.6767 1.84242e-05 12.8145 1.84242e-05 12.9582C1.84242e-05 13.1018 0.0570867 13.2396 0.158669 13.3412C0.260251 13.4428 0.398026 13.4998 0.541685 13.4998H12.4584C12.602 13.4998 12.7398 13.4428 12.8414 13.3412C12.943 13.2396 13 13.1018 13 12.9582C13 12.8145 12.943 12.6767 12.8414 12.5752C12.7398 12.4736 12.602 12.4165 12.4584 12.4165Z" fill="#513D78"/>
</svg>
