<svg width="18" height="18" viewBox="0 0 18 18" fill="none" xmlns="http://www.w3.org/2000/svg">
<path d="M0.331899 6.5483C0.178708 6.26416 0.107737 5.94295 0.126951 5.62071C0.146164 5.29847 0.254802 4.98797 0.440673 4.72404C0.744427 4.27836 1.15122 3.91255 1.62652 3.65763L6.95926 0.882131C7.48341 0.60958 8.06549 0.467285 8.65627 0.467285C9.24704 0.467285 9.82913 0.60958 10.3533 0.882131L15.6853 3.65976C16.1606 3.91468 16.5674 4.2805 16.8712 4.72617C17.057 4.9901 17.1657 5.3006 17.1849 5.62284C17.2041 5.94508 17.1331 6.26629 16.9799 6.55044C16.815 6.86242 16.5676 7.12317 16.2648 7.30431C15.9619 7.48544 15.6152 7.58002 15.2623 7.57774H2.05024C1.69701 7.57995 1.34997 7.48511 1.04695 7.30358C0.743939 7.12205 0.496594 6.86079 0.331899 6.5483ZM16.4766 16.109C16.4766 15.7319 16.3268 15.3702 16.0601 15.1036C15.7935 14.8369 15.4318 14.6871 15.0547 14.6871V8.99962H13.6328V14.6871H11.5V8.99962H10.0781V14.6871H7.23439V8.99962H5.81252V14.6871H3.6797V8.99962H2.25783V14.6871C1.88072 14.6871 1.51907 14.8369 1.25241 15.1036C0.985759 15.3702 0.835954 15.7319 0.835954 16.109C0.647402 16.109 0.466572 16.1839 0.333245 16.3172C0.199919 16.4505 0.125017 16.6314 0.125017 16.8199C0.125017 17.0085 0.199919 17.1893 0.333245 17.3226C0.466572 17.456 0.647402 17.5309 0.835954 17.5309H16.4766C16.6651 17.5309 16.846 17.456 16.9793 17.3226C17.1126 17.1893 17.1875 17.0085 17.1875 16.8199C17.1875 16.6314 17.1126 16.4505 16.9793 16.3172C16.846 16.1839 16.6651 16.109 16.4766 16.109Z" fill="#7C0B19"/>
</svg>
