<svg width="36" height="36" viewBox="0 0 36 36" fill="none" xmlns="http://www.w3.org/2000/svg">
<path fill-rule="evenodd" clip-rule="evenodd" d="M3 27.75C3 27.3358 3.33579 27 3.75 27H32.25C32.6642 27 33 27.3358 33 27.75V32.25C33 32.6642 32.6642 33 32.25 33H3.75C3.33579 33 3 32.6642 3 32.25V27.75ZM4.5 28.5V31.5H31.5V28.5H4.5Z" fill="#E2A93C"/>
<path fill-rule="evenodd" clip-rule="evenodd" d="M17.6507 3.08631C17.8693 2.97123 18.1307 2.97123 18.3493 3.08631L32.5993 10.5863C32.8457 10.716 33 10.9715 33 11.25V14.25C33 14.6642 32.6642 15 32.25 15H3.75C3.33579 15 3 14.6642 3 14.25V11.25C3 10.9715 3.15428 10.716 3.40069 10.5863L17.6507 3.08631ZM4.5 11.7028V13.5H31.5V11.7028L18 4.59754L4.5 11.7028Z" fill="#E2A93C"/>
<path fill-rule="evenodd" clip-rule="evenodd" d="M14.25 13.5C14.6642 13.5 15 13.8358 15 14.25L15 27.75C15 28.1642 14.6642 28.5 14.25 28.5H6.75C6.33579 28.5 6 28.1642 6 27.75L6 14.25C6 13.8358 6.33579 13.5 6.75 13.5L14.25 13.5ZM13.5 15L7.5 15L7.5 27H13.5L13.5 15Z" fill="#E2A93C"/>
<path fill-rule="evenodd" clip-rule="evenodd" d="M29.25 13.5C29.6642 13.5 30 13.8358 30 14.25L30 27.75C30 28.1642 29.6642 28.5 29.25 28.5H21.75C21.3358 28.5 21 28.1642 21 27.75V14.25C21 13.8358 21.3358 13.5 21.75 13.5L29.25 13.5ZM28.5 15L22.5 15L22.5 27H28.5L28.5 15Z" fill="#E2A93C"/>
<path fill-rule="evenodd" clip-rule="evenodd" d="M18 8.25C17.1716 8.25 16.5 8.92157 16.5 9.75C16.5 10.5784 17.1716 11.25 18 11.25C18.8284 11.25 19.5 10.5784 19.5 9.75C19.5 8.92157 18.8284 8.25 18 8.25ZM15 9.75C15 8.09315 16.3431 6.75 18 6.75C19.6569 6.75 21 8.09315 21 9.75C21 11.4069 19.6569 12.75 18 12.75C16.3431 12.75 15 11.4069 15 9.75Z" fill="#E2A93C"/>
</svg>
