<svg width="124" height="115" viewBox="0 0 124 115" fill="none" xmlns="http://www.w3.org/2000/svg">
<g filter="url(#filter0_d_777_2202)">
<rect x="10" y="6" width="104" height="95" rx="8" fill="#A161FF" shape-rendering="crispEdges"/>
<path d="M37.85 18H36.7V25H40.7V23.9H37.85V18ZM45.2873 20.71C44.8773 20.15 44.2973 19.87 43.5373 19.87C42.8473 19.87 42.2673 20.12 41.7773 20.63C41.2873 21.14 41.0473 21.76 41.0473 22.5C41.0473 23.23 41.2873 23.86 41.7773 24.37C42.2673 24.88 42.8473 25.13 43.5373 25.13C44.2973 25.13 44.8773 24.85 45.2873 24.28V25H46.3673V20H45.2873V20.71ZM42.5773 23.65C42.2773 23.34 42.1273 22.96 42.1273 22.5C42.1273 22.04 42.2773 21.66 42.5773 21.36C42.8773 21.05 43.2573 20.9 43.7073 20.9C44.1573 20.9 44.5373 21.05 44.8373 21.36C45.1373 21.66 45.2873 22.04 45.2873 22.5C45.2873 22.96 45.1373 23.34 44.8373 23.65C44.5373 23.95 44.1573 24.1 43.7073 24.1C43.2573 24.1 42.8773 23.95 42.5773 23.65ZM50.4561 19.87C49.6961 19.87 49.1161 20.15 48.7061 20.71V18H47.6261V25H48.7061V24.28C49.1161 24.85 49.6961 25.13 50.4561 25.13C51.1461 25.13 51.7261 24.88 52.2161 24.37C52.7061 23.86 52.9461 23.23 52.9461 22.5C52.9461 21.76 52.7061 21.14 52.2161 20.63C51.7261 20.12 51.1461 19.87 50.4561 19.87ZM49.1561 23.65C48.8561 23.34 48.7061 22.96 48.7061 22.5C48.7061 22.04 48.8561 21.66 49.1561 21.36C49.4561 21.05 49.8361 20.9 50.2861 20.9C50.7361 20.9 51.1161 21.05 51.4161 21.36C51.7161 21.66 51.8661 22.04 51.8661 22.5C51.8661 22.96 51.7161 23.34 51.4161 23.65C51.1161 23.95 50.7361 24.1 50.2861 24.1C49.8361 24.1 49.4561 23.95 49.1561 23.65ZM61.7449 25L60.1549 22.28C60.9849 21.95 61.5449 21.14 61.5449 20.25C61.5449 19.62 61.3249 19.09 60.8849 18.66C60.4549 18.22 59.9249 18 59.2949 18H56.4949V25H57.6449V22.45H59.0049L60.4849 25H61.7449ZM59.2949 19.08C59.9049 19.08 60.3949 19.6 60.3949 20.25C60.3949 20.9 59.9049 21.42 59.2949 21.42H57.6449V19.08H59.2949ZM67.1241 22.96C67.1541 22.77 67.1641 22.62 67.1641 22.51C67.1641 21.78 66.9241 21.15 66.4541 20.64C65.9841 20.13 65.3841 19.87 64.6541 19.87C63.8841 19.87 63.2441 20.12 62.7541 20.63C62.2641 21.13 62.0141 21.75 62.0141 22.5C62.0141 23.26 62.2641 23.89 62.7641 24.39C63.2641 24.88 63.9241 25.13 64.7341 25.13C65.7041 25.13 66.4341 24.77 66.9241 24.04L66.0341 23.52C65.7441 23.93 65.3141 24.14 64.7441 24.14C63.9141 24.14 63.3041 23.72 63.1441 22.96H67.1241ZM63.1341 22.08C63.2841 21.32 63.8441 20.85 64.6441 20.85C65.3541 20.85 65.9241 21.27 66.0741 22.08H63.1341ZM70.9444 19.87C70.1844 19.87 69.6044 20.15 69.1944 20.72V20H68.1144V27H69.1944V24.29C69.6044 24.85 70.1844 25.13 70.9444 25.13C71.6344 25.13 72.2144 24.88 72.7044 24.37C73.1944 23.86 73.4344 23.24 73.4344 22.5C73.4344 21.77 73.1944 21.15 72.7044 20.64C72.2144 20.13 71.6344 19.87 70.9444 19.87ZM69.6444 23.65C69.3444 23.34 69.1944 22.96 69.1944 22.5C69.1944 22.04 69.3444 21.66 69.6444 21.36C69.9444 21.05 70.3244 20.9 70.7744 20.9C71.2244 20.9 71.6044 21.05 71.9044 21.36C72.2044 21.66 72.3544 22.04 72.3544 22.5C72.3544 22.96 72.2044 23.34 71.9044 23.65C71.6044 23.95 71.2244 24.1 70.7744 24.1C70.3244 24.1 69.9444 23.95 69.6444 23.65ZM76.7732 25.13C77.5132 25.13 78.1332 24.88 78.6432 24.37C79.1532 23.86 79.4132 23.24 79.4132 22.5C79.4132 21.76 79.1532 21.14 78.6432 20.63C78.1332 20.12 77.5132 19.87 76.7732 19.87C76.0432 19.87 75.4132 20.12 74.9032 20.63C74.3932 21.14 74.1332 21.76 74.1332 22.5C74.1332 23.24 74.3932 23.86 74.9032 24.37C75.4132 24.88 76.0432 25.13 76.7732 25.13ZM75.6632 23.63C75.3632 23.33 75.2132 22.95 75.2132 22.5C75.2132 22.05 75.3632 21.67 75.6632 21.37C75.9632 21.07 76.3332 20.92 76.7732 20.92C77.2132 20.92 77.5832 21.07 77.8832 21.37C78.1832 21.67 78.3332 22.05 78.3332 22.5C78.3332 22.95 78.1832 23.33 77.8832 23.63C77.5832 23.93 77.2132 24.08 76.7732 24.08C76.3332 24.08 75.9632 23.93 75.6632 23.63ZM81.4698 20H80.3898V25H81.4698V22.48C81.4698 21.97 81.6198 21.6 81.9298 21.38C82.2398 21.15 82.5998 21.05 83.0098 21.08V19.91C82.2598 19.91 81.7398 20.22 81.4698 20.84V20ZM86.7247 20H85.4847V18.6L84.4047 18.92V20H83.4847V21.04H84.4047V23.44C84.4047 24.75 85.0747 25.2 86.7247 25V24.03C85.9047 24.07 85.4847 24.08 85.4847 23.44V21.04H86.7247V20Z" fill="white"/>
<path d="M72.1336 49.6829C71.8472 49.6012 71.5858 49.4492 71.3732 49.2407C71.1605 49.0322 71.0034 48.7738 70.9161 48.4891C70.4312 46.8457 69.6179 45.3177 68.5255 43.9976C67.4331 42.6776 66.0842 41.5929 64.5604 40.8092C63.0367 40.0255 61.3698 39.5592 59.6606 39.4383C57.9514 39.3174 56.2354 39.5446 54.6166 40.1061C52.9977 40.6675 51.5096 41.5516 50.2423 42.7048C48.9749 43.8579 47.9548 45.2563 47.2434 46.8151C46.5321 48.374 46.1445 50.0609 46.104 51.7739C46.0635 53.4869 46.3709 55.1903 47.0077 56.781C47.154 57.1158 47.1855 57.4895 47.0973 57.844C47.0091 58.1986 46.8062 58.514 46.5201 58.7412C45.2593 59.6769 44.275 60.9361 43.6712 62.3855C43.0675 63.8348 42.8669 65.4204 43.0906 66.9745C43.4396 69.0754 44.5303 70.9815 46.1647 72.3469C47.7991 73.7123 49.8689 74.4465 51.9984 74.4162H60.417C60.8369 74.4162 61.2396 74.2494 61.5366 73.9524C61.8335 73.6555 62.0003 73.2528 62.0003 72.8328C62.0003 72.4129 61.8335 72.0102 61.5366 71.7132C61.2396 71.4163 60.8369 71.2495 60.417 71.2495H51.9984C50.6308 71.2827 49.2966 70.8249 48.2376 69.959C47.1786 69.0931 46.4648 67.8765 46.2256 66.5296C46.0739 65.5396 46.1968 64.5269 46.581 63.602C46.9651 62.677 47.5958 61.8752 48.4042 61.284C49.2534 60.6493 49.8677 59.7506 50.1505 58.7289C50.4334 57.7072 50.3688 56.6204 49.967 55.6394C49.1724 53.541 49.1315 51.2318 49.8514 49.1066C50.4265 47.4418 51.4562 45.9714 52.8241 44.8618C54.1919 43.7523 55.8432 43.048 57.5907 42.8287C57.9961 42.7765 58.4044 42.75 58.8131 42.7495C60.8604 42.7427 62.8548 43.3993 64.4978 44.621C66.1407 45.8426 67.3437 47.5636 67.9267 49.5262C68.1543 50.2741 68.5643 50.9537 69.1199 51.5037C69.6754 52.0537 70.3591 52.4569 71.1092 52.677C72.9451 53.22 74.5713 54.3108 75.7701 55.8035C76.9689 57.2962 77.6831 59.1194 77.8171 61.0292C77.951 62.939 77.4984 64.8441 76.5197 66.4896C75.5411 68.135 74.0831 69.4422 72.3411 70.2362C72.0832 70.3682 71.8677 70.57 71.719 70.8186C71.5704 71.0672 71.4946 71.3526 71.5003 71.6422C71.4972 71.9042 71.56 72.1627 71.6829 72.3942C71.8057 72.6256 71.9848 72.8224 72.2035 72.9666C72.4223 73.1109 72.6738 73.1978 72.9349 73.2195C73.196 73.2412 73.4584 73.197 73.698 73.0909C80.2435 69.9448 83.7996 61.6688 78.258 53.6729C76.7321 51.6825 74.5708 50.2745 72.1336 49.6829Z" fill="white"/>
<path d="M72.6196 64.4527C72.9164 64.1558 73.0832 63.7532 73.0832 63.3333C73.0832 62.9135 72.9164 62.5108 72.6196 62.2139L70.1084 59.7027C69.2177 58.8123 68.0097 58.312 66.7502 58.312C65.4906 58.312 64.2827 58.8123 63.3919 59.7027L60.8807 62.2139C60.5923 62.5125 60.4327 62.9125 60.4363 63.3276C60.4399 63.7428 60.6065 64.1399 60.9 64.4335C61.1936 64.727 61.5907 64.8935 62.0059 64.8971C62.421 64.9008 62.821 64.7412 63.1196 64.4527L65.1668 62.4055V74.4167C65.1668 74.8366 65.3336 75.2393 65.6306 75.5363C65.9275 75.8332 66.3302 76 66.7502 76C67.1701 76 67.5728 75.8332 67.8697 75.5363C68.1667 75.2393 68.3335 74.8366 68.3335 74.4167V62.4055L70.3807 64.4527C70.6777 64.7496 71.0803 64.9163 71.5002 64.9163C71.92 64.9163 72.3227 64.7496 72.6196 64.4527Z" fill="white"/>
</g>
<defs>
<filter id="filter0_d_777_2202" x="0" y="0" width="124" height="115" filterUnits="userSpaceOnUse" color-interpolation-filters="sRGB">
<feFlood flood-opacity="0" result="BackgroundImageFix"/>
<feColorMatrix in="SourceAlpha" type="matrix" values="0 0 0 0 0 0 0 0 0 0 0 0 0 0 0 0 0 0 127 0" result="hardAlpha"/>
<feOffset dy="4"/>
<feGaussianBlur stdDeviation="5"/>
<feComposite in2="hardAlpha" operator="out"/>
<feColorMatrix type="matrix" values="0 0 0 0 0 0 0 0 0 0 0 0 0 0 0 0 0 0 0.25 0"/>
<feBlend mode="normal" in2="BackgroundImageFix" result="effect1_dropShadow_777_2202"/>
<feBlend mode="normal" in="SourceGraphic" in2="effect1_dropShadow_777_2202" result="shape"/>
</filter>
</defs>
</svg>
