<svg width="82" height="82" viewBox="0 0 82 82" fill="none" xmlns="http://www.w3.org/2000/svg">
<path d="M47.8402 9.82839C48.1348 8.49649 49.4567 7.64682 50.764 8.03626C56.4571 9.73223 61.6278 12.8806 65.7574 17.1898C70.458 22.0949 73.5986 28.2838 74.7819 34.9738C75.9652 41.6637 75.1381 48.5544 72.4053 54.7743C69.6724 60.9942 65.1565 66.2641 59.4286 69.9175C53.7007 73.5709 47.0181 75.4437 40.2258 75.2991C33.4335 75.1545 26.8366 72.9991 21.2693 69.1053C15.7021 65.2115 11.4145 59.7542 8.94875 53.4236C6.78257 47.8621 6.10795 41.8461 6.97061 35.9687C7.1687 34.6191 8.49652 33.7787 9.82843 34.0732V34.0732C11.1603 34.3677 11.9903 35.6858 11.8086 37.0377C11.147 41.9579 11.7402 46.98 13.5517 51.6308C15.6628 57.051 19.3338 61.7235 24.1005 65.0573C28.8672 68.3912 34.5154 70.2367 40.3309 70.3605C46.1464 70.4842 51.868 68.8807 56.7722 65.7527C61.6764 62.6247 65.5429 58.1127 67.8828 52.7872C70.2226 47.4618 70.9308 41.5621 69.9176 35.8341C68.9045 30.1062 66.2155 24.8074 62.1909 20.6076C58.7375 17.0041 54.4338 14.3486 49.6935 12.8739C48.391 12.4687 47.5457 11.1603 47.8402 9.82839V9.82839Z" fill="#8545FF"/>
</svg>
