<svg width="63" height="63" viewBox="0 0 63 63" fill="none" xmlns="http://www.w3.org/2000/svg">
<rect width="63" height="63" rx="22" fill="url(#paint0_radial_221_1472)" fill-opacity="0.12"/>
<g clip-path="url(#clip0_221_1472)">
<path d="M43 29C43.0023 28.4495 42.853 27.909 42.5686 27.4376C42.2842 26.9662 41.8755 26.5823 41.3874 26.3277C40.8993 26.0731 40.3505 25.9577 39.8012 25.9942C39.2519 26.0307 38.7232 26.2176 38.2731 26.5345C37.8229 26.8514 37.4686 27.2861 37.249 27.7909C37.0294 28.2957 36.953 28.8513 37.028 29.3966C37.1031 29.942 37.3268 30.4562 37.6746 30.883C38.0224 31.3097 38.481 31.6325 39 31.816V36C39 37.5913 38.3679 39.1174 37.2426 40.2426C36.1174 41.3679 34.5913 42 33 42C31.4087 42 29.8826 41.3679 28.7574 40.2426C27.6321 39.1174 27 37.5913 27 36V35.92C28.6641 35.6786 30.1858 34.8467 31.2874 33.5762C32.3889 32.3058 32.9968 30.6815 33 29V25C32.9984 23.6744 32.4711 22.4036 31.5338 21.4662C30.5964 20.5289 29.3256 20.0016 28 20C27.7348 20 27.4804 20.1054 27.2929 20.2929C27.1054 20.4804 27 20.7348 27 21C27 21.2652 27.1054 21.5196 27.2929 21.7071C27.4804 21.8946 27.7348 22 28 22C28.7957 22 29.5587 22.3161 30.1213 22.8787C30.6839 23.4413 31 24.2044 31 25V29C31 30.3261 30.4732 31.5979 29.5355 32.5355C28.5979 33.4732 27.3261 34 26 34C24.6739 34 23.4021 33.4732 22.4645 32.5355C21.5268 31.5979 21 30.3261 21 29V25C21 24.2044 21.3161 23.4413 21.8787 22.8787C22.4413 22.3161 23.2044 22 24 22C24.2652 22 24.5196 21.8946 24.7071 21.7071C24.8946 21.5196 25 21.2652 25 21C25 20.7348 24.8946 20.4804 24.7071 20.2929C24.5196 20.1054 24.2652 20 24 20C22.6744 20.0016 21.4036 20.5289 20.4662 21.4662C19.5289 22.4036 19.0016 23.6744 19 25V29C19.0032 30.6815 19.6111 32.3058 20.7126 33.5762C21.8142 34.8467 23.3359 35.6786 25 35.92V36C25 38.1217 25.8429 40.1566 27.3431 41.6569C28.8434 43.1571 30.8783 44 33 44C35.1217 44 37.1566 43.1571 38.6569 41.6569C40.1571 40.1566 41 38.1217 41 36V31.816C41.5829 31.6099 42.0879 31.2288 42.4459 30.7247C42.8039 30.2206 42.9974 29.6183 43 29V29ZM40 30C39.8022 30 39.6089 29.9414 39.4444 29.8315C39.28 29.7216 39.1518 29.5654 39.0761 29.3827C39.0004 29.2 38.9806 28.9989 39.0192 28.8049C39.0578 28.6109 39.153 28.4327 39.2929 28.2929C39.4327 28.153 39.6109 28.0578 39.8049 28.0192C39.9989 27.9806 40.2 28.0004 40.3827 28.0761C40.5654 28.1518 40.7216 28.28 40.8315 28.4444C40.9414 28.6089 41 28.8022 41 29C41 29.2652 40.8946 29.5196 40.7071 29.7071C40.5196 29.8946 40.2652 30 40 30Z" fill="#8841EE"/>
</g>
<defs>
<radialGradient id="paint0_radial_221_1472" cx="0" cy="0" r="1" gradientUnits="userSpaceOnUse" gradientTransform="translate(31.0563 31.9437) rotate(44.1931) scale(44.5521)">
<stop stop-color="#7220EA"/>
<stop offset="0.0708332" stop-color="#8841EE"/>
<stop offset="1" stop-color="#D9C0FF"/>
</radialGradient>
<clipPath id="clip0_221_1472">
<rect width="24" height="24" fill="white" transform="translate(19 20)"/>
</clipPath>
</defs>
</svg>
