<svg width="13" height="14" viewBox="0 0 13 14" fill="none" xmlns="http://www.w3.org/2000/svg">
<path d="M12.3788 1.47239C12.0105 1.10471 11.5114 0.898193 10.991 0.898193C10.4706 0.898193 9.97153 1.10471 9.60328 1.47239L0.793611 10.2821C0.54133 10.5329 0.341299 10.8313 0.205089 11.16C0.0688793 11.4887 -0.000804535 11.8411 6.915e-05 12.1969V13.3089C6.915e-05 13.4526 0.0571374 13.5903 0.15872 13.6919C0.260302 13.7935 0.398077 13.8506 0.541736 13.8506H1.65378C2.00952 13.8516 2.36194 13.782 2.69061 13.6459C3.01929 13.5098 3.3177 13.3098 3.56857 13.0576L12.3788 4.24735C12.7463 3.87912 12.9527 3.38013 12.9527 2.85987C12.9527 2.33962 12.7463 1.84062 12.3788 1.47239ZM2.80265 12.2916C2.49715 12.5951 2.08438 12.766 1.65378 12.7672H1.0834V12.1969C1.08285 11.9834 1.12465 11.7719 1.20638 11.5747C1.28811 11.3775 1.40814 11.1985 1.55953 11.048L8.24532 4.36219L9.49115 5.60802L2.80265 12.2916ZM11.6123 3.48144L10.2549 4.83939L9.00907 3.59627L10.367 2.23831C10.4488 2.15669 10.5459 2.09197 10.6527 2.04787C10.7595 2.00376 10.874 1.98112 10.9895 1.98125C11.1051 1.98137 11.2195 2.00426 11.3262 2.0486C11.4329 2.09294 11.5299 2.15786 11.6115 2.23967C11.6931 2.32147 11.7578 2.41855 11.802 2.52536C11.8461 2.63217 11.8687 2.74662 11.8686 2.86219C11.8684 2.97775 11.8456 3.09215 11.8012 3.19887C11.7569 3.30558 11.692 3.40252 11.6102 3.48414L11.6123 3.48144Z" fill="#914AF9"/>
</svg>
