<svg width="124" height="115" viewBox="0 0 124 115" fill="none" xmlns="http://www.w3.org/2000/svg">
<g filter="url(#filter0_d_777_2201)">
<rect x="10" y="6" width="104" height="95" rx="8" fill="#A161FF" shape-rendering="crispEdges"/>
<path d="M35.2 18V25H36.35V22.6H37.78C38.44 22.6 38.99 22.38 39.43 21.94C39.88 21.49 40.1 20.95 40.1 20.3C40.1 19.65 39.88 19.1 39.43 18.66C38.99 18.22 38.44 18 37.78 18H35.2ZM36.35 21.52V19.08H37.78C38.46 19.08 38.95 19.59 38.95 20.3C38.95 21.01 38.46 21.52 37.78 21.52H36.35ZM42.0108 20H40.9308V25H42.0108V22.48C42.0108 21.97 42.1608 21.6 42.4708 21.38C42.7808 21.15 43.1408 21.05 43.5508 21.08V19.91C42.8008 19.91 42.2808 20.22 42.0108 20.84V20ZM48.9444 22.96C48.9744 22.77 48.9844 22.62 48.9844 22.51C48.9844 21.78 48.7444 21.15 48.2744 20.64C47.8044 20.13 47.2044 19.87 46.4744 19.87C45.7044 19.87 45.0644 20.12 44.5744 20.63C44.0844 21.13 43.8344 21.75 43.8344 22.5C43.8344 23.26 44.0844 23.89 44.5844 24.39C45.0844 24.88 45.7444 25.13 46.5544 25.13C47.5244 25.13 48.2544 24.77 48.7444 24.04L47.8544 23.52C47.5644 23.93 47.1344 24.14 46.5644 24.14C45.7344 24.14 45.1244 23.72 44.9644 22.96H48.9444ZM44.9544 22.08C45.1044 21.32 45.6644 20.85 46.4644 20.85C47.1744 20.85 47.7444 21.27 47.8944 22.08H44.9544ZM50.7094 21.38C50.7094 21.03 51.0294 20.85 51.4394 20.85C51.8894 20.85 52.2094 21.04 52.3794 21.42L53.2894 20.91C52.9394 20.26 52.2694 19.87 51.4394 19.87C50.9194 19.87 50.4794 20.01 50.1294 20.29C49.7794 20.57 49.6094 20.94 49.6094 21.4C49.5894 22.45 50.5994 22.75 51.3494 22.94C51.8794 23.07 52.2994 23.26 52.2994 23.58C52.2994 23.95 52.0194 24.14 51.4494 24.14C50.8794 24.14 50.5094 23.9 50.3394 23.42L49.4094 23.96C49.7294 24.69 50.4594 25.13 51.4494 25.13C52.0094 25.13 52.4694 24.99 52.8394 24.72C53.2094 24.45 53.3994 24.07 53.3994 23.59C53.4194 22.52 52.4194 22.2 51.6494 22.03C51.1294 21.88 50.7094 21.71 50.7094 21.38ZM56.5818 25.13C57.5518 25.13 58.4018 24.63 58.8318 23.83L57.9018 23.3C57.6618 23.77 57.1618 24.07 56.5718 24.07C56.1318 24.07 55.7618 23.92 55.4618 23.62C55.1718 23.32 55.0218 22.95 55.0218 22.5C55.0218 22.05 55.1718 21.68 55.4618 21.38C55.7618 21.08 56.1318 20.93 56.5718 20.93C57.1718 20.93 57.6518 21.22 57.8818 21.7L58.8118 21.16C58.4118 20.37 57.5518 19.87 56.5818 19.87C55.8318 19.87 55.2018 20.12 54.6918 20.63C54.1918 21.13 53.9418 21.75 53.9418 22.5C53.9418 23.24 54.1918 23.86 54.6918 24.37C55.2018 24.88 55.8318 25.13 56.5818 25.13ZM60.7217 20H59.6417V25H60.7217V22.48C60.7217 21.97 60.8717 21.6 61.1817 21.38C61.4917 21.15 61.8517 21.05 62.2617 21.08V19.91C61.5117 19.91 60.9917 20.22 60.7217 20.84V20ZM64.0797 19.05C64.3597 18.77 64.3597 18.35 64.0897 18.08C63.8197 17.8 63.3797 17.8 63.1097 18.08C62.8397 18.35 62.8397 18.77 63.1097 19.05C63.3897 19.32 63.8097 19.32 64.0797 19.05ZM64.1397 25V20H63.0597V25H64.1397ZM68.2237 19.87C67.4637 19.87 66.8837 20.15 66.4737 20.72V20H65.3937V27H66.4737V24.29C66.8837 24.85 67.4637 25.13 68.2237 25.13C68.9137 25.13 69.4937 24.88 69.9837 24.37C70.4737 23.86 70.7137 23.24 70.7137 22.5C70.7137 21.77 70.4737 21.15 69.9837 20.64C69.4937 20.13 68.9137 19.87 68.2237 19.87ZM66.9237 23.65C66.6237 23.34 66.4737 22.96 66.4737 22.5C66.4737 22.04 66.6237 21.66 66.9237 21.36C67.2237 21.05 67.6037 20.9 68.0537 20.9C68.5037 20.9 68.8837 21.05 69.1837 21.36C69.4837 21.66 69.6337 22.04 69.6337 22.5C69.6337 22.96 69.4837 23.34 69.1837 23.65C68.8837 23.95 68.5037 24.1 68.0537 24.1C67.6037 24.1 67.2237 23.95 66.9237 23.65ZM74.3848 20H73.1448V18.6L72.0648 18.92V20H71.1448V21.04H72.0648V23.44C72.0648 24.75 72.7348 25.2 74.3848 25V24.03C73.5648 24.07 73.1448 24.08 73.1448 23.44V21.04H74.3848V20ZM76.3844 19.05C76.6644 18.77 76.6644 18.35 76.3944 18.08C76.1244 17.8 75.6844 17.8 75.4144 18.08C75.1444 18.35 75.1444 18.77 75.4144 19.05C75.6944 19.32 76.1144 19.32 76.3844 19.05ZM76.4444 25V20H75.3644V25H76.4444ZM80.0584 25.13C80.7984 25.13 81.4184 24.88 81.9284 24.37C82.4384 23.86 82.6984 23.24 82.6984 22.5C82.6984 21.76 82.4384 21.14 81.9284 20.63C81.4184 20.12 80.7984 19.87 80.0584 19.87C79.3284 19.87 78.6984 20.12 78.1884 20.63C77.6784 21.14 77.4184 21.76 77.4184 22.5C77.4184 23.24 77.6784 23.86 78.1884 24.37C78.6984 24.88 79.3284 25.13 80.0584 25.13ZM78.9484 23.63C78.6484 23.33 78.4984 22.95 78.4984 22.5C78.4984 22.05 78.6484 21.67 78.9484 21.37C79.2484 21.07 79.6184 20.92 80.0584 20.92C80.4984 20.92 80.8684 21.07 81.1684 21.37C81.4684 21.67 81.6184 22.05 81.6184 22.5C81.6184 22.95 81.4684 23.33 81.1684 23.63C80.8684 23.93 80.4984 24.08 80.0584 24.08C79.6184 24.08 79.2484 23.93 78.9484 23.63ZM86.3049 19.87C85.5949 19.87 85.0849 20.13 84.7549 20.64V20H83.6749V25H84.7549V22.32C84.7549 21.35 85.2649 20.88 86.0249 20.88C86.7149 20.88 87.1449 21.29 87.1449 22.04V25H88.2249V21.93C88.2249 20.65 87.4549 19.87 86.3049 19.87Z" fill="white"/>
<g clip-path="url(#clip0_777_2201)">
<path d="M72.2616 39.4339L53.4656 58.2299C52.7478 58.944 52.1786 59.7933 51.7912 60.7287C51.4038 61.6642 51.2058 62.6672 51.2086 63.6797V65.7502C51.2086 66.1591 51.3711 66.5512 51.6602 66.8403C51.9493 67.1294 52.3414 67.2919 52.7503 67.2919H54.8208C55.8333 67.2947 56.8363 67.0967 57.7718 66.7093C58.7072 66.3219 59.5566 65.7527 60.2706 65.0349L79.0666 46.2389C79.9675 45.3357 80.4735 44.1121 80.4735 42.8364C80.4735 41.5607 79.9675 40.3371 79.0666 39.4339C78.1503 38.5581 76.9316 38.0693 75.6641 38.0693C74.3966 38.0693 73.1779 38.5581 72.2616 39.4339ZM76.8866 44.0589L58.0906 62.8549C57.2213 63.7189 56.0464 64.2053 54.8208 64.2085H54.292V63.6797C54.2952 62.4541 54.7816 61.2792 55.6456 60.4099L74.4416 41.6139C74.7708 41.2993 75.2087 41.1238 75.6641 41.1238C76.1195 41.1238 76.5574 41.2993 76.8866 41.6139C77.2103 41.9384 77.3921 42.378 77.3921 42.8364C77.3921 43.2948 77.2103 43.7344 76.8866 44.0589Z" fill="white"/>
<path d="M78.9583 51.8426C78.5495 51.8426 78.1573 52.0051 77.8682 52.2942C77.5791 52.5833 77.4167 52.9754 77.4167 53.3843V61.125H71.25C70.0234 61.125 68.847 61.6123 67.9796 62.4796C67.1123 63.347 66.625 64.5234 66.625 65.75V71.9167H51.2083C49.9817 71.9167 48.8053 71.4294 47.938 70.562C47.0706 69.6947 46.5833 68.5183 46.5833 67.2917V45.7083C46.5833 44.4817 47.0706 43.3053 47.938 42.438C48.8053 41.5706 49.9817 41.0833 51.2083 41.0833H65.1481C65.557 41.0833 65.9491 40.9209 66.2382 40.6318C66.5273 40.3427 66.6898 39.9505 66.6898 39.5417C66.6898 39.1328 66.5273 38.7407 66.2382 38.4515C65.9491 38.1624 65.557 38 65.1481 38H51.2083C49.1647 38.0024 47.2055 38.8154 45.7604 40.2604C44.3154 41.7055 43.5024 43.6647 43.5 45.7083V67.2917C43.5024 69.3353 44.3154 71.2945 45.7604 72.7396C47.2055 74.1846 49.1647 74.9976 51.2083 75H68.6955C69.7082 75.0029 70.7115 74.8049 71.6472 74.4175C72.5829 74.0301 73.4325 73.4609 74.1468 72.743L78.2415 68.6453C78.9595 67.9313 79.5288 67.082 79.9165 66.1465C80.3042 65.2111 80.5025 64.2081 80.5 63.1955V53.3843C80.5 52.9754 80.3376 52.5833 80.0485 52.2942C79.7593 52.0051 79.3672 51.8426 78.9583 51.8426ZM71.9669 70.5631C71.3472 71.1813 70.5635 71.6093 69.7083 71.7964V65.75C69.7083 65.3411 69.8708 64.949 70.1599 64.6599C70.449 64.3708 70.8411 64.2083 71.25 64.2083H77.301C77.1103 65.0617 76.6829 65.8439 76.0677 66.4653L71.9669 70.5631Z" fill="white"/>
</g>
</g>
<defs>
<filter id="filter0_d_777_2201" x="0" y="0" width="124" height="115" filterUnits="userSpaceOnUse" color-interpolation-filters="sRGB">
<feFlood flood-opacity="0" result="BackgroundImageFix"/>
<feColorMatrix in="SourceAlpha" type="matrix" values="0 0 0 0 0 0 0 0 0 0 0 0 0 0 0 0 0 0 127 0" result="hardAlpha"/>
<feOffset dy="4"/>
<feGaussianBlur stdDeviation="5"/>
<feComposite in2="hardAlpha" operator="out"/>
<feColorMatrix type="matrix" values="0 0 0 0 0 0 0 0 0 0 0 0 0 0 0 0 0 0 0.25 0"/>
<feBlend mode="normal" in2="BackgroundImageFix" result="effect1_dropShadow_777_2201"/>
<feBlend mode="normal" in="SourceGraphic" in2="effect1_dropShadow_777_2201" result="shape"/>
</filter>
<clipPath id="clip0_777_2201">
<rect width="37" height="37" fill="white" transform="translate(43.5 38)"/>
</clipPath>
</defs>
</svg>
