<svg width="63" height="63" viewBox="0 0 63 63" fill="none" xmlns="http://www.w3.org/2000/svg">
<rect width="63" height="63" rx="22" fill="url(#paint0_radial_100_2017)" fill-opacity="0.12"/>
<path d="M38.3823 31.5C41.558 31.5 44.1323 28.9256 44.1323 25.75C44.1323 22.5744 41.558 20 38.3823 20C35.2067 20 32.6323 22.5744 32.6323 25.75C32.6323 28.9256 35.2067 31.5 38.3823 31.5Z" fill="#C5BFFF"/>
<path d="M38.3823 33.4158C33.6211 33.4211 29.7626 37.2795 29.7573 42.0408C29.7573 42.57 30.1864 42.9991 30.7156 42.9991H46.049C46.5782 42.9991 47.0073 42.57 47.0073 42.0408C47.002 37.2795 43.1436 33.421 38.3823 33.4158Z" fill="#C5BFFF"/>
<path d="M23.5 31.5C26.6756 31.5 29.25 28.9256 29.25 25.75C29.25 22.5744 26.6756 20 23.5 20C20.3244 20 17.75 22.5744 17.75 25.75C17.75 28.9256 20.3244 31.5 23.5 31.5Z" fill="#C5BFFF"/>
<path d="M23.5 33.4158C18.7387 33.4211 14.8803 37.2795 14.875 42.0408C14.875 42.57 15.304 42.9991 15.8333 42.9991H31.1666C31.6959 42.9991 32.125 42.57 32.125 42.0408C32.1197 37.2795 28.2613 33.421 23.5 33.4158Z" fill="#C5BFFF"/>
<g clip-path="url(#clip0_100_2017)">
<path d="M30.9412 33.5294C33.5565 33.5294 35.6765 31.4094 35.6765 28.7941C35.6765 26.1789 33.5565 24.0588 30.9412 24.0588C28.326 24.0588 26.2059 26.1789 26.2059 28.7941C26.2059 31.4094 28.326 33.5294 30.9412 33.5294Z" fill="#8841EE"/>
<path d="M30.9412 35.1072C27.0202 35.1115 23.8426 38.2891 23.8383 42.2101C23.8383 42.646 24.1916 42.9993 24.6275 42.9993H37.2549C37.6908 42.9993 38.0441 42.646 38.0441 42.2101C38.0398 38.2891 34.8622 35.1115 30.9412 35.1072Z" fill="#8841EE"/>
</g>
<defs>
<radialGradient id="paint0_radial_100_2017" cx="0" cy="0" r="1" gradientUnits="userSpaceOnUse" gradientTransform="translate(31.0563 31.9437) rotate(44.1931) scale(44.5521)">
<stop stop-color="#7220EA"/>
<stop offset="0.0708332" stop-color="#8841EE"/>
<stop offset="1" stop-color="#D9C0FF"/>
</radialGradient>
<clipPath id="clip0_100_2017">
<rect width="18.9412" height="18.9412" fill="white" transform="translate(21.4706 24.0588)"/>
</clipPath>
</defs>
</svg>
