<svg width="63" height="63" viewBox="0 0 63 63" fill="none" xmlns="http://www.w3.org/2000/svg">
<rect width="63" height="63" rx="22" fill="url(#paint0_radial_221_1471)" fill-opacity="0.12"/>
<g clip-path="url(#clip0_221_1471)">
<path d="M32.0001 22.051V21C32.0001 20.7348 31.8947 20.4804 31.7072 20.2929C31.5196 20.1054 31.2653 20 31.0001 20C30.7348 20 30.4805 20.1054 30.2929 20.2929C30.1054 20.4804 30.0001 20.7348 30.0001 21V22.051C27.9868 22.2315 26.0625 22.9642 24.439 24.1684C22.8156 25.3726 21.5561 27.0016 20.7992 28.8759C20.0424 30.7501 19.8176 32.797 20.1496 34.7908C20.4817 36.7847 21.3577 38.6482 22.6811 40.176C22.1584 40.4345 21.7217 40.8387 21.4234 41.3397C21.1252 41.8408 20.9782 42.4173 21.0001 43C21.0001 43.2652 21.1054 43.5196 21.2929 43.7071C21.4805 43.8946 21.7348 44 22.0001 44C22.2653 44 22.5196 43.8946 22.7072 43.7071C22.8947 43.5196 23.0001 43.2652 23.0001 43C22.9917 42.6918 23.1024 42.3922 23.3091 42.1633C23.5157 41.9345 23.8026 41.794 24.1101 41.771C24.1788 41.7579 24.2459 41.7371 24.3101 41.709C26.2256 43.1947 28.5809 44.001 31.0051 44.001C33.4292 44.001 35.7845 43.1947 37.7001 41.709C37.7586 41.736 37.8195 41.7574 37.8821 41.773C38.1906 41.794 38.4791 41.9334 38.6874 42.162C38.8957 42.3906 39.0077 42.6908 39.0001 43C39.0001 43.2652 39.1054 43.5196 39.2929 43.7071C39.4805 43.8946 39.7348 44 40.0001 44C40.2653 44 40.5196 43.8946 40.7072 43.7071C40.8947 43.5196 41.0001 43.2652 41.0001 43C41.0219 42.4173 40.8749 41.8408 40.5767 41.3397C40.2784 40.8387 39.8417 40.4345 39.3191 40.176C40.6425 38.6482 41.5184 36.7847 41.8505 34.7908C42.1825 32.797 41.9577 30.7501 41.2009 28.8759C40.444 27.0016 39.1845 25.3726 37.5611 24.1684C35.9376 22.9642 34.0133 22.2315 32.0001 22.051V22.051ZM22.0001 33C22.0001 31.22 22.5279 29.4799 23.5168 27.9999C24.5058 26.5198 25.9114 25.3663 27.5559 24.6851C29.2004 24.0039 31.01 23.8257 32.7559 24.1729C34.5017 24.5202 36.1053 25.3774 37.364 26.636C38.6227 27.8947 39.4799 29.4984 39.8271 31.2442C40.1744 32.99 39.9962 34.7996 39.315 36.4442C38.6338 38.0887 37.4802 39.4943 36.0002 40.4832C34.5201 41.4722 32.7801 42 31.0001 42C28.614 41.9971 26.3265 41.0479 24.6393 39.3607C22.9521 37.6736 22.003 35.3861 22.0001 33V33Z" fill="#8841EE"/>
<path d="M38.2147 20.0001C37.9495 20.0001 37.6952 20.1055 37.5076 20.293C37.3201 20.4805 37.2147 20.7349 37.2147 21.0001C37.2147 21.2653 37.3201 21.5197 37.5076 21.7072C37.6952 21.8947 37.9495 22.0001 38.2147 22.0001C38.5634 21.9736 38.9139 22.018 39.245 22.1306C39.5761 22.2432 39.8809 22.4217 40.1412 22.6553C40.4014 22.8889 40.6116 23.1728 40.7592 23.4898C40.9068 23.8069 40.9886 24.1506 40.9997 24.5001C40.9997 24.7653 41.1051 25.0197 41.2926 25.2072C41.4802 25.3947 41.7345 25.5001 41.9997 25.5001C42.2649 25.5001 42.5193 25.3947 42.7068 25.2072C42.8944 25.0197 42.9997 24.7653 42.9997 24.5001C42.9869 23.8886 42.8523 23.2858 42.6037 22.7269C42.3552 22.1681 41.9977 21.6644 41.5521 21.2454C41.1065 20.8264 40.5819 20.5004 40.0088 20.2866C39.4358 20.0728 38.8259 19.9754 38.2147 20.0001V20.0001Z" fill="#8841EE"/>
<path d="M21 24.5001C21.0111 24.1506 21.093 23.8069 21.2405 23.4898C21.3881 23.1728 21.5983 22.8889 21.8586 22.6553C22.1188 22.4217 22.4237 22.2432 22.7547 22.1306C23.0858 22.018 23.4363 21.9736 23.785 22.0001C24.0502 22.0001 24.3046 21.8947 24.4921 21.7072C24.6796 21.5197 24.785 21.2653 24.785 21.0001C24.785 20.7349 24.6796 20.4805 24.4921 20.293C24.3046 20.1055 24.0502 20.0001 23.785 20.0001C23.1739 19.9754 22.5639 20.0728 21.9909 20.2866C21.4178 20.5004 20.8932 20.8264 20.4476 21.2454C20.0021 21.6644 19.6445 22.1681 19.396 22.7269C19.1474 23.2858 19.0128 23.8886 19 24.5001C19 24.7653 19.1054 25.0197 19.2929 25.2072C19.4804 25.3947 19.7348 25.5001 20 25.5001C20.2652 25.5001 20.5196 25.3947 20.7071 25.2072C20.8946 25.0197 21 24.7653 21 24.5001Z" fill="#8841EE"/>
<path d="M32.0001 31.586V27C32.0001 26.7348 31.8948 26.4804 31.7072 26.2929C31.5197 26.1054 31.2653 26 31.0001 26C30.7349 26 30.4806 26.1054 30.293 26.2929C30.1055 26.4804 30.0001 26.7348 30.0001 27V32C30.0002 32.2652 30.1056 32.5195 30.2931 32.707L33.2931 35.707C33.4817 35.8892 33.7343 35.99 33.9965 35.9877C34.2587 35.9854 34.5095 35.8802 34.6949 35.6948C34.8803 35.5094 34.9855 35.2586 34.9878 34.9964C34.9901 34.7342 34.8893 34.4816 34.7071 34.293L32.0001 31.586Z" fill="#8841EE"/>
</g>
<defs>
<radialGradient id="paint0_radial_221_1471" cx="0" cy="0" r="1" gradientUnits="userSpaceOnUse" gradientTransform="translate(31.0563 31.9437) rotate(44.1931) scale(44.5521)">
<stop stop-color="#7220EA"/>
<stop offset="0.0708332" stop-color="#8841EE"/>
<stop offset="1" stop-color="#D9C0FF"/>
</radialGradient>
<clipPath id="clip0_221_1471">
<rect width="24" height="24" fill="white" transform="translate(19 20)"/>
</clipPath>
</defs>
</svg>
