<svg width="19" height="21" viewBox="0 0 19 21" fill="none" xmlns="http://www.w3.org/2000/svg">
<path d="M17.3749 3.5H14.6624C14.4594 2.51249 13.922 1.62518 13.141 0.987628C12.36 0.350079 11.3831 0.00127271 10.3749 0L8.62494 0C7.61676 0.00127271 6.63984 0.350079 5.85884 0.987628C5.07785 1.62518 4.54052 2.51249 4.33744 3.5H1.62494C1.39287 3.5 1.17031 3.59219 1.00622 3.75628C0.842126 3.92038 0.749939 4.14294 0.749939 4.375C0.749939 4.60706 0.842126 4.82962 1.00622 4.99372C1.17031 5.15781 1.39287 5.25 1.62494 5.25H2.49994V16.625C2.50133 17.7849 2.96271 18.8969 3.78288 19.7171C4.60305 20.5372 5.71504 20.9986 6.87494 21H12.1249C13.2848 20.9986 14.3968 20.5372 15.217 19.7171C16.0372 18.8969 16.4985 17.7849 16.4999 16.625V5.25H17.3749C17.607 5.25 17.8296 5.15781 17.9937 4.99372C18.1578 4.82962 18.2499 4.60706 18.2499 4.375C18.2499 4.14294 18.1578 3.92038 17.9937 3.75628C17.8296 3.59219 17.607 3.5 17.3749 3.5ZM8.62494 1.75H10.3749C10.9177 1.75066 11.4469 1.9192 11.8901 2.23251C12.3333 2.54582 12.6687 2.98856 12.8503 3.5H6.14956C6.3312 2.98856 6.6666 2.54582 7.10978 2.23251C7.55295 1.9192 8.0822 1.75066 8.62494 1.75ZM14.7499 16.625C14.7499 17.3212 14.4734 17.9889 13.9811 18.4812C13.4888 18.9734 12.8211 19.25 12.1249 19.25H6.87494C6.17875 19.25 5.51107 18.9734 5.01878 18.4812C4.5265 17.9889 4.24994 17.3212 4.24994 16.625V5.25H14.7499V16.625Z" fill="#E47878"/>
</svg>
