<svg width="24" height="24" viewBox="0 0 24 24" fill="none" xmlns="http://www.w3.org/2000/svg">
<g clip-path="url(#clip0_574_2468)">
<path d="M19 3H5C3.67441 3.00159 2.40356 3.52888 1.46622 4.46622C0.528882 5.40356 0.00158786 6.67441 0 8H24C23.9984 6.67441 23.4711 5.40356 22.5338 4.46622C21.5964 3.52888 20.3256 3.00159 19 3Z" fill="#654CC7"/>
<path d="M0 16C0.00158786 17.3256 0.528882 18.5964 1.46622 19.5338C2.40356 20.4711 3.67441 20.9984 5 21H19C20.3256 20.9984 21.5964 20.4711 22.5338 19.5338C23.4711 18.5964 23.9984 17.3256 24 16V10H0V16ZM7 15.5C7 15.7967 6.91203 16.0867 6.7472 16.3333C6.58238 16.58 6.34811 16.7723 6.07403 16.8858C5.79994 16.9993 5.49834 17.029 5.20736 16.9712C4.91639 16.9133 4.64912 16.7704 4.43934 16.5607C4.22956 16.3509 4.0867 16.0836 4.02882 15.7926C3.97094 15.5017 4.00065 15.2001 4.11418 14.926C4.22771 14.6519 4.41997 14.4176 4.66664 14.2528C4.91332 14.088 5.20333 14 5.5 14C5.89782 14 6.27936 14.158 6.56066 14.4393C6.84196 14.7206 7 15.1022 7 15.5Z" fill="#654CC7"/>
</g>
<defs>
<clipPath id="clip0_574_2468">
<rect width="24" height="24" fill="white"/>
</clipPath>
</defs>
</svg>
