<svg width="63" height="63" viewBox="0 0 63 63" fill="none" xmlns="http://www.w3.org/2000/svg">
<rect width="63" height="63" rx="22" fill="url(#paint0_radial_100_1670)" fill-opacity="0.12"/>
<path d="M19.0651 43.4269L20.8228 37.0439C19.7361 35.1704 19.166 33.0486 19.172 30.8796C19.172 24.0829 24.7303 18.5569 31.5535 18.5569C34.8671 18.5569 37.9788 19.8394 40.3126 22.168C42.6523 24.4966 43.9409 27.5935 43.935 30.8855C43.935 37.6822 38.3767 43.2082 31.5475 43.2082H31.5416C29.4691 43.2082 27.4322 42.6881 25.621 41.707L19.0651 43.4269ZM25.9358 39.4789L26.3099 39.7035C27.8895 40.6373 29.7007 41.1278 31.5475 41.1337H31.5535C37.2246 41.1337 41.8447 36.5415 41.8447 30.8914C41.8447 28.155 40.7758 25.5841 38.8339 23.6455C36.8921 21.707 34.303 20.6432 31.5535 20.6432C25.8823 20.6373 21.2623 25.2295 21.2623 30.8796C21.2623 32.8122 21.8027 34.6975 22.8359 36.3288L23.0794 36.7188L22.0402 40.4954L25.9358 39.4789Z" fill="#8841EE"/>
<path d="M19.0651 43.4269L20.8228 37.0439C19.7361 35.1704 19.166 33.0486 19.172 30.8796C19.172 24.0829 24.7303 18.5569 31.5535 18.5569C34.8671 18.5569 37.9788 19.8394 40.3126 22.168C42.6523 24.4966 43.9409 27.5935 43.935 30.8855C43.935 37.6822 38.3767 43.2082 31.5475 43.2082H31.5416C29.4691 43.2082 27.4322 42.6881 25.621 41.707L19.0651 43.4269ZM25.9358 39.4789L26.3099 39.7035C27.8895 40.6373 29.7007 41.1278 31.5475 41.1337H31.5535C37.2246 41.1337 41.8447 36.5415 41.8447 30.8914C41.8447 28.155 40.7758 25.5841 38.8339 23.6455C36.8921 21.707 34.303 20.6432 31.5535 20.6432C25.8823 20.6373 21.2623 25.2295 21.2623 30.8796C21.2623 32.8122 21.8027 34.6975 22.8359 36.3288L23.0794 36.7188L22.0402 40.4954L25.9358 39.4789Z" fill="#914AF9"/>
<path fill-rule="evenodd" clip-rule="evenodd" d="M28.4595 25.7258C28.2279 25.2116 27.9844 25.1998 27.7647 25.1939C27.5866 25.188 27.3787 25.188 27.1709 25.188C26.963 25.188 26.6305 25.2648 26.3454 25.5721C26.0604 25.8795 25.2646 26.6242 25.2646 28.1431C25.2646 29.6561 26.3751 31.1218 26.5295 31.3287C26.6839 31.5355 28.6733 34.7447 31.8147 35.9799C34.4276 37.0083 34.962 36.8015 35.5262 36.7483C36.0903 36.6951 37.3552 36.0036 37.6165 35.2826C37.8718 34.5615 37.8718 33.9469 37.7946 33.8168C37.7174 33.6868 37.5096 33.61 37.2008 33.4563C36.892 33.3026 35.3718 32.558 35.0867 32.4516C34.8017 32.3511 34.5938 32.2979 34.3919 32.6052C34.1841 32.9126 33.5903 33.6041 33.4121 33.8109C33.234 34.0178 33.0499 34.0414 32.7411 33.8878C32.4323 33.7341 31.4346 33.409 30.2529 32.357C29.3324 31.5414 28.7089 30.5308 28.5308 30.2234C28.3526 29.9161 28.5129 29.7506 28.6673 29.597C28.8039 29.461 28.9761 29.2365 29.1305 29.0591C29.2849 28.8818 29.3384 28.7518 29.4393 28.545C29.5403 28.3381 29.4928 28.1608 29.4156 28.0071C29.3384 27.8594 28.7327 26.3346 28.4595 25.7258Z" fill="#8841EE"/>
<defs>
<radialGradient id="paint0_radial_100_1670" cx="0" cy="0" r="1" gradientUnits="userSpaceOnUse" gradientTransform="translate(31.0563 31.9437) rotate(44.1931) scale(44.5521)">
<stop stop-color="#7220EA"/>
<stop offset="0.0708332" stop-color="#8841EE"/>
<stop offset="1" stop-color="#D9C0FF"/>
</radialGradient>
</defs>
</svg>
